<svg id="visual" viewBox="0 0 900 200" width="900" height="200" xmlns="http://www.w3.org/2000/svg" xmlns:xlink="http://www.w3.org/1999/xlink" version="1.1"><path d="M0 98L129 30L257 58L386 49L514 72L643 95L771 84L900 81L900 201L771 201L643 201L514 201L386 201L257 201L129 201L0 201Z" fill="#60a5fa"></path><path d="M0 72L129 74L257 94L386 64L514 70L643 119L771 73L900 76L900 201L771 201L643 201L514 201L386 201L257 201L129 201L0 201Z" fill="#08bbfa"></path><path d="M0 118L129 119L257 114L386 99L514 125L643 135L771 128L900 106L900 201L771 201L643 201L514 201L386 201L257 201L129 201L0 201Z" fill="#00cdeb"></path><path d="M0 143L129 164L257 123L386 142L514 119L643 155L771 120L900 154L900 201L771 201L643 201L514 201L386 201L257 201L129 201L0 201Z" fill="#00dac7"></path><path d="M0 170L129 183L257 176L386 153L514 180L643 146L771 159L900 159L900 201L771 201L643 201L514 201L386 201L257 201L129 201L0 201Z" fill="#4ade80"></path></svg>